<?xml version="1.0" encoding="utf-8"?>
<!-- Generator: Adobe Illustrator 15.0.2, SVG Export Plug-In . SVG Version: 6.00 Build 0)  -->
<!DOCTYPE svg PUBLIC "-//W3C//DTD SVG 1.1//EN" "http://www.w3.org/Graphics/SVG/1.1/DTD/svg11.dtd">
<svg version="1.1" id="Layer_2" xmlns="http://www.w3.org/2000/svg" xmlns:xlink="http://www.w3.org/1999/xlink" x="0px" y="0px"
	 width="612px" height="792px" viewBox="0 0 612 792" enable-background="new 0 0 612 792" xml:space="preserve">
<g>
	<path fill="#004763" d="M423.35,252.546H191.726c-15.984,0-28.953,12.96-28.953,28.953v231.625
		c0,15.983,12.969,28.952,28.953,28.952H423.35c15.984,0,28.953-12.969,28.953-28.952V281.5
		C452.303,265.506,439.334,252.546,423.35,252.546"/>
	<linearGradient id="SVGID_1_" gradientUnits="userSpaceOnUse" x1="307.5381" y1="260.3115" x2="307.5381" y2="522.9785">
		<stop  offset="0" style="stop-color:#57B6DD"/>
		<stop  offset="1" style="stop-color:#004763"/>
	</linearGradient>
	<path fill="url(#SVGID_1_)" d="M423.35,534.876H191.726c-11.995,0-21.752-9.758-21.752-21.753V281.5
		c0-11.995,9.757-21.752,21.752-21.752H423.35c11.995,0,21.753,9.757,21.753,21.752v231.623
		C445.103,525.118,435.345,534.876,423.35,534.876L423.35,534.876z"/>
	<linearGradient id="SVGID_2_" gradientUnits="userSpaceOnUse" x1="307.5391" y1="267.8584" x2="307.5391" y2="524.7509">
		<stop  offset="0" style="stop-color:#006699"/>
		<stop  offset="1" style="stop-color:#004763"/>
	</linearGradient>
	<path fill="url(#SVGID_2_)" d="M423.351,527.676H191.727c-8.025,0-14.552-6.527-14.552-14.552V281.5
		c0-8.025,6.527-14.552,14.552-14.552h231.624c8.024,0,14.552,6.527,14.552,14.552v231.624
		C437.902,521.148,431.375,527.676,423.351,527.676L423.351,527.676z"/>
</g>
<g opacity="0.5">
	<path d="M267.837,468.957V368.226h-33.48v100.731H267.837z M251.097,354.473c11.677,0,18.943-7.736,18.943-17.402
		c-0.217-9.885-7.266-17.405-18.723-17.405c-11.452,0-18.94,7.52-18.94,17.405c0,9.666,7.266,17.402,18.5,17.402h0.217H251.097z"/>
	<path d="M286.363,468.957h33.48v-56.252c0-3.011,0.223-6.017,1.103-8.171c2.423-6.017,7.932-12.244,17.183-12.244
		c12.115,0,16.96,9.238,16.96,22.781v53.886h33.48v-57.76c0-30.936-16.521-45.334-38.549-45.334c-18.063,0-25.995,10.096-30.4,16.97
		h0.229v-14.607h-33.484c0.438,9.453,0,100.731,0,100.731H286.363z"/>
</g>
<g>
	<linearGradient id="SVGID_3_" gradientUnits="userSpaceOnUse" x1="251.2085" y1="326.4395" x2="251.2085" y2="413.3585">
		<stop  offset="0" style="stop-color:#CCCCCC"/>
		<stop  offset="1" style="stop-color:#F2F2F2"/>
	</linearGradient>
	<path fill="url(#SVGID_3_)" d="M267.837,471.957V371.226h-33.48v100.731H267.837z M251.097,357.473
		c11.677,0,18.943-7.736,18.943-17.402c-0.217-9.885-7.266-17.405-18.723-17.405c-11.452,0-18.94,7.52-18.94,17.405
		c0,9.666,7.266,17.402,18.5,17.402h0.217H251.097z"/>
	<linearGradient id="SVGID_4_" gradientUnits="userSpaceOnUse" x1="337.4668" y1="326.4395" x2="337.4668" y2="413.3585">
		<stop  offset="0" style="stop-color:#CCCCCC"/>
		<stop  offset="1" style="stop-color:#F2F2F2"/>
	</linearGradient>
	<path fill="url(#SVGID_4_)" d="M286.363,471.957h33.48v-56.252c0-3.011,0.223-6.017,1.103-8.171
		c2.423-6.017,7.932-12.244,17.183-12.244c12.115,0,16.96,9.238,16.96,22.781v53.886h33.48v-57.76
		c0-30.936-16.521-45.334-38.549-45.334c-18.063,0-25.995,10.096-30.4,16.97h0.229v-14.607h-33.484c0.438,9.453,0,100.731,0,100.731
		H286.363z"/>
</g>
</svg>
